<?xml version="1.0" encoding="UTF-8"?>
<!DOCTYPE svg PUBLIC "-//W3C//DTD SVG 1.1//EN" "http://www.w3.org/Graphics/SVG/1.1/DTD/svg11.dtd">
<svg xmlns="http://www.w3.org/2000/svg" version="1.1" width="192px" height="192px" style="shape-rendering:geometricPrecision; text-rendering:geometricPrecision; image-rendering:optimizeQuality; fill-rule:evenodd; clip-rule:evenodd" xmlns:xlink="http://www.w3.org/1999/xlink">
<g><path style="opacity:0.994" fill="#0f0c0c" d="M 79.5,-0.5 C 89.8333,-0.5 100.167,-0.5 110.5,-0.5C 110.842,0.338246 111.508,0.67158 112.5,0.5C 119.738,6.23198 126.571,12.5653 133,19.5C 136.015,24.5245 138.182,29.8578 139.5,35.5C 139.908,43.0138 137.742,49.6805 133,55.5C 132.187,57.4357 131.687,59.4357 131.5,61.5C 131.666,67.1764 131.499,72.8431 131,78.5C 129.797,84.3043 128.464,89.971 127,95.5C 129.251,97.3773 131.751,98.8773 134.5,100C 153.575,104.189 171.575,111.022 188.5,120.5C 188.5,121.5 188.5,122.5 188.5,123.5C 187.833,123.5 187.5,123.833 187.5,124.5C 170.19,115.226 151.857,108.393 132.5,104C 129.644,102.741 126.977,101.241 124.5,99.5C 122.52,100.848 121.353,102.848 121,105.5C 120.501,109.821 120.334,114.154 120.5,118.5C 119.839,134.822 112.506,147.155 98.5,155.5C 95.5701,156.299 92.5701,156.632 89.5,156.5C 84.0614,155.392 80.0614,152.392 77.5,147.5C 68.0688,135.215 65.0688,121.548 68.5,106.5C 68.631,105.761 68.4643,105.094 68,104.5C 54.5819,112.46 41.0819,120.293 27.5,128C 22.5858,134.067 17.9191,140.234 13.5,146.5C 13.5,145.833 13.1667,145.5 12.5,145.5C 11.8902,144.609 11.5569,143.609 11.5,142.5C 15.3074,135.735 19.9741,129.569 25.5,124C 39.5805,116.211 53.4138,108.045 67,99.5C 68.457,91.5706 65.2903,86.7373 57.5,85C 52.9167,81.0877 49.0834,76.5877 46,71.5C 45.6667,67.8333 45.3333,64.1667 45,60.5C 38.6763,52.8667 35.5097,44.0334 35.5,34C 35.8849,28.2353 37.2182,22.7353 39.5,17.5C 42.6505,14.4208 46.3171,12.0875 50.5,10.5C 44.2259,16.0499 40.8926,23.0499 40.5,31.5C 39.3178,35.5773 39.6511,39.5773 41.5,43.5C 42.2294,48.2931 44.0627,52.6264 47,56.5C 51.685,59.5141 56.5183,62.3474 61.5,65C 62.6399,66.9734 63.9733,68.8067 65.5,70.5C 67,68.1667 68.5,65.8333 70,63.5C 74.4668,60.0349 78.6334,56.2016 82.5,52C 87.5908,51.55 91.9241,49.55 95.5,46C 101.001,46.8527 106.668,47.5193 112.5,48C 113.333,48.8333 114.167,49.6667 115,50.5C 116.527,48.779 117.527,46.779 118,44.5C 119.733,42.3985 121.733,42.0652 124,43.5C 126.194,46.5544 127.861,49.8878 129,53.5C 136.551,42.309 136.218,31.309 128,20.5C 121.358,13.5204 113.858,7.68702 105.5,3C 97.5852,1.59887 89.5852,1.09887 81.5,1.5C 75.5462,2.75731 69.5462,3.75731 63.5,4.5C 68.7448,2.52262 74.0781,0.855951 79.5,-0.5 Z"/></g>
<g><path style="opacity:0.01" fill="#e2cfc0" d="M 116.5,0.5 C 116.5,0.166667 116.5,-0.166667 116.5,-0.5C 117.5,-0.5 118.5,-0.5 119.5,-0.5C 118.791,0.403972 117.791,0.737305 116.5,0.5 Z"/></g>
<g><path style="opacity:0.012" fill="#e0cec0" d="M 120.5,1.5 C 121.251,0.426544 122.251,0.259877 123.5,1C 122.552,1.48278 121.552,1.64945 120.5,1.5 Z"/></g>
<g><path style="opacity:0.012" fill="#171515" d="M 64.5,2.5 C 64.8966,1.47498 65.5632,1.30831 66.5,2C 65.9056,2.46434 65.2389,2.63101 64.5,2.5 Z"/></g>
<g><path style="opacity:0.008" fill="#e0cfc0" d="M 124.5,2.5 C 124.897,1.47498 125.563,1.30831 126.5,2C 125.906,2.46434 125.239,2.63101 124.5,2.5 Z"/></g>
<g><path style="opacity:0.008" fill="#e0cfc0" d="M 129.5,3.5 C 128.761,3.63101 128.094,3.46434 127.5,3C 128.437,2.30831 129.103,2.47498 129.5,3.5 Z"/></g>
<g><path style="opacity:1" fill="#401c0a" d="M 81.5,1.5 C 89.5852,1.09887 97.5852,1.59887 105.5,3C 113.858,7.68702 121.358,13.5204 128,20.5C 136.218,31.309 136.551,42.309 129,53.5C 127.861,49.8878 126.194,46.5544 124,43.5C 121.733,42.0652 119.733,42.3985 118,44.5C 117.527,46.779 116.527,48.779 115,50.5C 114.167,49.6667 113.333,48.8333 112.5,48C 106.668,47.5193 101.001,46.8527 95.5,46C 91.9241,49.55 87.5908,51.55 82.5,52C 78.6334,56.2016 74.4668,60.0349 70,63.5C 68.5,65.8333 67,68.1667 65.5,70.5C 63.9733,68.8067 62.6399,66.9734 61.5,65C 56.5183,62.3474 51.685,59.5141 47,56.5C 44.0627,52.6264 42.2294,48.2931 41.5,43.5C 41.5,40.5 41.5,37.5 41.5,34.5C 41.795,25.0773 45.4616,17.244 52.5,11C 55.4799,8.676 58.8133,7.176 62.5,6.5C 69.1804,5.70421 75.5138,4.03754 81.5,1.5 Z"/></g>
<g><path style="opacity:0.012" fill="#e0cec0" d="M 129.5,4.5 C 129.5,4.16667 129.5,3.83333 129.5,3.5C 132.167,3.83333 132.167,4.16667 129.5,4.5 Z"/></g>
<g><path style="opacity:1" fill="#93837c" d="M 81.5,1.5 C 75.5138,4.03754 69.1804,5.70421 62.5,6.5C 62.5,5.83333 62.1667,5.5 61.5,5.5C 61.8417,4.66175 62.5084,4.32842 63.5,4.5C 69.5462,3.75731 75.5462,2.75731 81.5,1.5 Z"/></g>
<g><path style="opacity:0.012" fill="#000100" d="M 43.5,11.5 C 44.8333,12.1667 44.8333,12.1667 43.5,11.5 Z"/></g>
<g><path style="opacity:0.988" fill="#cfbfb6" d="M 61.5,5.5 C 62.1667,5.5 62.5,5.83333 62.5,6.5C 58.8133,7.176 55.4799,8.676 52.5,11C 45.4616,17.244 41.795,25.0773 41.5,34.5C 40.596,33.791 40.2627,32.791 40.5,31.5C 40.8926,23.0499 44.2259,16.0499 50.5,10.5C 53.7512,8.04308 57.4179,6.37641 61.5,5.5 Z"/></g>
<g><path style="opacity:1" fill="#e0cec0" d="M 112.5,0.5 C 113.833,0.5 115.167,0.5 116.5,0.5C 117.568,1.43448 118.901,1.76781 120.5,1.5C 123.215,3.07191 126.215,4.07191 129.5,4.5C 135.461,7.48062 141.461,10.4806 147.5,13.5C 160.209,22.5424 170.876,33.5424 179.5,46.5C 180.659,50.1513 182.326,53.4846 184.5,56.5C 185.459,60.383 186.792,64.0497 188.5,67.5C 188.565,70.4282 189.232,73.0948 190.5,75.5C 190.216,77.4147 190.549,79.0813 191.5,80.5C 191.5,90.1667 191.5,99.8333 191.5,109.5C 190.539,111.265 190.205,113.265 190.5,115.5C 189.566,116.568 189.232,117.901 189.5,119.5C 188.833,119.5 188.5,119.833 188.5,120.5C 171.575,111.022 153.575,104.189 134.5,100C 131.751,98.8773 129.251,97.3773 127,95.5C 128.464,89.971 129.797,84.3043 131,78.5C 131.499,72.8431 131.666,67.1764 131.5,61.5C 134.574,56.3552 137.407,51.0219 140,45.5C 140.808,41.9733 140.641,38.6399 139.5,35.5C 138.182,29.8578 136.015,24.5245 133,19.5C 126.571,12.5653 119.738,6.23198 112.5,0.5 Z"/></g>
<g><path style="opacity:0.016" fill="#e0cfc0" d="M 147.5,12.5 C 148.833,13.1667 148.833,13.1667 147.5,12.5 Z"/></g>
<g><path style="opacity:0.008" fill="#e0cfc0" d="M 149.5,13.5 C 150.833,14.1667 150.833,14.1667 149.5,13.5 Z"/></g>
<g><path style="opacity:0.008" fill="#d8cabd" d="M 37.5,15.5 C 38.8333,16.1667 38.8333,16.1667 37.5,15.5 Z"/></g>
<g><path style="opacity:0.008" fill="#e0cfc0" d="M 33.5,18.5 C 34.8333,19.1667 34.8333,19.1667 33.5,18.5 Z"/></g>
<g><path style="opacity:1" fill="#dfcec0" d="M 39.5,17.5 C 37.2182,22.7353 35.8849,28.2353 35.5,34C 35.5097,44.0334 38.6763,52.8667 45,60.5C 45.3333,64.1667 45.6667,67.8333 46,71.5C 49.0834,76.5877 52.9167,81.0877 57.5,85C 65.2903,86.7373 68.457,91.5706 67,99.5C 53.4138,108.045 39.5805,116.211 25.5,124C 19.9741,129.569 15.3074,135.735 11.5,142.5C 11.1667,142.5 10.8333,142.5 10.5,142.5C 10.6716,141.508 10.3382,140.842 9.5,140.5C 9.67158,139.508 9.33825,138.842 8.5,138.5C 8.67158,137.508 8.33825,136.842 7.5,136.5C 7.67158,135.508 7.33825,134.842 6.5,134.5C 6.20414,132.597 5.53747,130.93 4.5,129.5C 4.07191,126.215 3.07191,123.215 1.5,120.5C 1.76781,118.901 1.43448,117.568 0.5,116.5C 0.794717,114.265 0.461384,112.265 -0.5,110.5C -0.5,100.167 -0.5,89.8333 -0.5,79.5C 0.451145,78.0813 0.784479,76.4147 0.5,74.5C 3.45123,63.6627 7.78456,53.3294 13.5,43.5C 20.4939,33.1728 29.1606,24.5061 39.5,17.5 Z"/></g>
<g><path style="opacity:0.008" fill="#e0cfc0" d="M 18.5,33.5 C 19.8333,34.1667 19.8333,34.1667 18.5,33.5 Z"/></g>
<g><path style="opacity:0.008" fill="#e0cfc0" d="M 15.5,37.5 C 16.8333,38.1667 16.8333,38.1667 15.5,37.5 Z"/></g>
<g><path style="opacity:1" fill="#69554f" d="M 40.5,31.5 C 40.2627,32.791 40.596,33.791 41.5,34.5C 41.5,37.5 41.5,40.5 41.5,43.5C 39.6511,39.5773 39.3178,35.5773 40.5,31.5 Z"/></g>
<g><path style="opacity:0.012" fill="#e1cec1" d="M 13.5,43.5 C 13.1667,43.5 12.8333,43.5 12.5,43.5C 12.8333,40.8333 13.1667,40.8333 13.5,43.5 Z"/></g>
<g><path style="opacity:0.012" fill="#e0cfc0" d="M 12.5,43.5 C 11.8333,44.1667 11.8333,44.1667 12.5,43.5 Z"/></g>
<g><path style="opacity:0.012" fill="#e0cfc0" d="M 179.5,45.5 C 180.833,46.1667 180.833,46.1667 179.5,45.5 Z"/></g>
<g><path style="opacity:1" fill="#fbccb1" d="M 68.5,76.5 C 70.8603,74.2874 72.6937,71.6207 74,68.5C 79.0026,64.6636 83.5026,60.3303 87.5,55.5C 92.2526,55.4973 96.2526,53.8307 99.5,50.5C 102.535,52.301 105.869,52.9677 109.5,52.5C 109.5,54.1667 109.5,55.8333 109.5,57.5C 112.518,57.6646 115.518,57.498 118.5,57C 119.64,55.0266 120.973,53.1933 122.5,51.5C 127.257,63.5676 127.757,75.9009 124,88.5C 120.252,93.9979 117.585,99.9979 116,106.5C 114.833,109 113,110.833 110.5,112C 103.161,113.232 96.1615,112.232 89.5,109C 83.0213,105.002 77.1879,100.168 72,94.5C 70.6826,90.2104 69.1826,86.0437 67.5,82C 67.9434,80.175 68.2767,78.3417 68.5,76.5 Z"/></g>
<g><path style="opacity:1" fill="#412319" d="M 139.5,35.5 C 140.641,38.6399 140.808,41.9733 140,45.5C 137.407,51.0219 134.574,56.3552 131.5,61.5C 131.687,59.4357 132.187,57.4357 133,55.5C 137.742,49.6805 139.908,43.0138 139.5,35.5 Z"/></g>
<g><path style="opacity:0.01" fill="#e0cfc0" d="M 184.5,56.5 C 184.369,55.7611 184.536,55.0944 185,54.5C 185.692,55.4368 185.525,56.1034 184.5,56.5 Z"/></g>
<g><path style="opacity:0.012" fill="#e0cfc0" d="M 185.5,57.5 C 186.833,58.1667 186.833,58.1667 185.5,57.5 Z"/></g>
<g><path style="opacity:0.012" fill="#e0cfc0" d="M 1.5,64.5 C 2.52502,64.8966 2.69169,65.5632 2,66.5C 1.53566,65.9056 1.36899,65.2389 1.5,64.5 Z"/></g>
<g><path style="opacity:0.012" fill="#e0cec0" d="M 189.5,67.5 C 189.167,67.5 188.833,67.5 188.5,67.5C 188.833,63.5 189.167,63.5 189.5,67.5 Z"/></g>
<g><path style="opacity:1" fill="#ebc3ab" d="M 49.5,64.5 C 53.471,65.5719 56.971,67.5719 60,70.5C 61.7365,74.5422 63.5699,78.5422 65.5,82.5C 65,82.8333 64.5,83.1667 64,83.5C 55.8674,79.5518 51.0341,73.2185 49.5,64.5 Z"/></g>
<g><path style="opacity:1" fill="#3f1f15" d="M 87.5,55.5 C 83.5026,60.3303 79.0026,64.6636 74,68.5C 72.6937,71.6207 70.8603,74.2874 68.5,76.5C 72.3519,67.3119 78.6853,60.3119 87.5,55.5 Z"/></g>
<g><path style="opacity:0.012" fill="#e0cfc0" d="M 189.5,67.5 C 190.573,68.2506 190.74,69.2506 190,70.5C 189.517,69.552 189.351,68.552 189.5,67.5 Z"/></g>
<g><path style="opacity:0.008" fill="#e0cec0" d="M -0.5,70.5 C 0.434475,71.5676 0.767809,72.901 0.5,74.5C 0.166667,74.5 -0.166667,74.5 -0.5,74.5C -0.5,73.1667 -0.5,71.8333 -0.5,70.5 Z"/></g>
<g><path style="opacity:0.008" fill="#e0cec0" d="M 191.5,71.5 C 191.5,72.8333 191.5,74.1667 191.5,75.5C 191.167,75.5 190.833,75.5 190.5,75.5C 190.232,73.901 190.566,72.5676 191.5,71.5 Z"/></g>
<g><path style="opacity:1" fill="#5c5b5b" d="M 124.5,99.5 C 126.977,101.241 129.644,102.741 132.5,104C 151.857,108.393 170.19,115.226 187.5,124.5C 187.5,125.167 187.5,125.833 187.5,126.5C 186.833,126.5 186.5,126.833 186.5,127.5C 184.738,127.357 183.071,127.691 181.5,128.5C 180.41,127.609 180.41,126.609 181.5,125.5C 179.926,124.369 178.259,124.202 176.5,125C 172.346,127.658 168.679,130.825 165.5,134.5C 166.919,131.9 168.585,129.4 170.5,127C 168.618,126.802 166.952,126.302 165.5,125.5C 169.176,124.761 172.51,123.428 175.5,121.5C 173.195,118.287 170.195,117.287 166.5,118.5C 167.5,119.333 168.5,120.167 169.5,121C 162.513,121.088 155.847,119.588 149.5,116.5C 148.571,115.311 148.238,113.978 148.5,112.5C 144.785,112.32 141.118,112.654 137.5,113.5C 136.833,113.167 136.167,112.833 135.5,112.5C 136.76,111.618 137.926,110.618 139,109.5C 139.591,108.517 139.257,107.85 138,107.5C 134.845,108.41 132.178,110.076 130,112.5C 129.667,118.5 129.333,124.5 129,130.5C 126.357,134.228 125.523,138.228 126.5,142.5C 128.021,139.946 129.354,137.279 130.5,134.5C 131.429,135.689 131.762,137.022 131.5,138.5C 130.091,148.771 129.257,159.104 129,169.5C 128.79,167.942 128.29,166.609 127.5,165.5C 127.877,158.743 127.377,152.076 126,145.5C 125.057,143.046 123.224,142.046 120.5,142.5C 117.729,142.082 115.729,143.082 114.5,145.5C 115.887,145.807 117.554,145.807 119.5,145.5C 116.091,153.059 110.258,158.059 102,160.5C 100.838,159.813 99.6716,159.647 98.5,160C 101.335,162.842 100.835,165.008 97,166.5C 95.9207,169.063 95.4207,171.729 95.5,174.5C 94.4006,168.971 91.734,164.305 87.5,160.5C 87.6667,160.167 87.8333,159.833 88,159.5C 91.1127,161.83 94.2794,161.997 97.5,160C 94.2084,159.996 91.5418,158.83 89.5,156.5C 92.5701,156.632 95.5701,156.299 98.5,155.5C 99.7211,156.465 101.054,156.298 102.5,155C 107.7,150.135 112.533,144.968 117,139.5C 119.631,134.112 121.131,128.445 121.5,122.5C 121.833,122.5 122.167,122.5 122.5,122.5C 122.025,114.688 122.692,107.021 124.5,99.5 Z"/></g>
<g><path style="opacity:1" fill="#f9cbb0" d="M 75.5,104.5 C 82.2859,110.227 89.9525,114.394 98.5,117C 104.924,118.393 110.757,117.227 116,113.5C 116.852,127.939 111.685,139.773 100.5,149C 96.2504,152.655 91.5837,153.321 86.5,151C 78.7485,142.997 74.0818,133.497 72.5,122.5C 72.3996,116.18 73.3996,110.18 75.5,104.5 Z"/></g>
<g><path style="opacity:1" fill="#cabdb4" d="M 68.5,106.5 C 54.9273,113.624 41.5939,121.29 28.5,129.5C 23.8135,135.569 19.1468,141.569 14.5,147.5C 14.1667,147.5 13.8333,147.5 13.5,147.5C 13.5,147.167 13.5,146.833 13.5,146.5C 17.9191,140.234 22.5858,134.067 27.5,128C 41.0819,120.293 54.5819,112.46 68,104.5C 68.4643,105.094 68.631,105.761 68.5,106.5 Z"/></g>
<g><path style="opacity:1" fill="#9b8981" d="M 124.5,99.5 C 122.692,107.021 122.025,114.688 122.5,122.5C 122.167,122.5 121.833,122.5 121.5,122.5C 121.768,120.901 121.434,119.568 120.5,118.5C 120.334,114.154 120.501,109.821 121,105.5C 121.353,102.848 122.52,100.848 124.5,99.5 Z"/></g>
<g><path style="opacity:1" fill="#1e1e1e" d="M 154.5,113.5 C 157.073,113.148 159.406,113.648 161.5,115C 159.728,116.487 157.728,116.82 155.5,116C 154.748,115.329 154.414,114.496 154.5,113.5 Z"/></g>
<g><path style="opacity:1" fill="#5e5e5e" d="M 68.5,106.5 C 65.0688,121.548 68.0688,135.215 77.5,147.5C 75.2431,148.803 73.4098,148.136 72,145.5C 67.5087,137.027 64.842,128.027 64,118.5C 63.2681,116.077 61.7681,114.91 59.5,115C 62.1717,119.128 61.005,120.295 56,118.5C 55.3333,119.833 54.6667,121.167 54,122.5C 47.9052,120.753 42.7385,122.253 38.5,127C 41.7199,126.321 44.8866,125.155 48,123.5C 48.5,123.667 49,123.833 49.5,124C 45.4106,128.211 40.4106,130.544 34.5,131C 31.7618,135.803 28.7618,140.47 25.5,145C 23.1667,145.333 20.8333,145.667 18.5,146C 16.116,149.933 16.9493,150.433 21,147.5C 21.5881,150.139 21.0881,152.473 19.5,154.5C 17.4776,152.469 15.8109,150.135 14.5,147.5C 19.1468,141.569 23.8135,135.569 28.5,129.5C 41.5939,121.29 54.9273,113.624 68.5,106.5 Z"/></g>
<g><path style="opacity:1" fill="#83746f" d="M 75.5,104.5 C 73.3996,110.18 72.3996,116.18 72.5,122.5C 71.2653,116.107 71.9319,109.773 74.5,103.5C 75.1067,103.624 75.44,103.957 75.5,104.5 Z"/></g>
<g><path style="opacity:0.01" fill="#e0cec0" d="M -0.5,116.5 C -0.166667,116.5 0.166667,116.5 0.5,116.5C 0.737305,117.791 0.403972,118.791 -0.5,119.5C -0.5,118.5 -0.5,117.5 -0.5,116.5 Z"/></g>
<g><path style="opacity:1" fill="#2c2c2e" d="M 77.5,147.5 C 80.0614,152.392 84.0614,155.392 89.5,156.5C 91.5418,158.83 94.2084,159.996 97.5,160C 94.2794,161.997 91.1127,161.83 88,159.5C 87.8333,159.833 87.6667,160.167 87.5,160.5C 91.734,164.305 94.4006,168.971 95.5,174.5C 94.1164,179.595 94.4497,184.595 96.5,189.5C 93.5719,190.484 90.5719,190.817 87.5,190.5C 86.9574,185.04 85.1241,180.04 82,175.5C 81.8333,176 81.6667,176.5 81.5,177C 82.606,178.882 82.606,180.716 81.5,182.5C 80.5224,182.023 79.6891,181.357 79,180.5C 78.4252,171.491 76.4252,162.825 73,154.5C 68.4316,149.292 66.5983,150.626 67.5,158.5C 68.2086,168.543 69.2086,178.543 70.5,188.5C 69.5,188.5 68.5,188.5 67.5,188.5C 64.0497,186.792 60.383,185.459 56.5,184.5C 56.5,183.833 56.1667,183.5 55.5,183.5C 54.8548,179.322 52.6881,175.989 49,173.5C 45.2841,163.796 39.9508,155.129 33,147.5C 31.5026,153.581 30.3359,159.581 29.5,165.5C 25.4564,162.457 22.1231,158.791 19.5,154.5C 21.0881,152.473 21.5881,150.139 21,147.5C 16.9493,150.433 16.116,149.933 18.5,146C 20.8333,145.667 23.1667,145.333 25.5,145C 28.7618,140.47 31.7618,135.803 34.5,131C 40.4106,130.544 45.4106,128.211 49.5,124C 49,123.833 48.5,123.667 48,123.5C 44.8866,125.155 41.7199,126.321 38.5,127C 42.7385,122.253 47.9052,120.753 54,122.5C 54.6667,121.167 55.3333,119.833 56,118.5C 61.005,120.295 62.1717,119.128 59.5,115C 61.7681,114.91 63.2681,116.077 64,118.5C 64.842,128.027 67.5087,137.027 72,145.5C 73.4098,148.136 75.2431,148.803 77.5,147.5 Z"/></g>
<g><path style="opacity:0.004" fill="#e0cfc1" d="M 190.5,115.5 C 190.833,115.5 191.167,115.5 191.5,115.5C 191.5,116.833 191.5,118.167 191.5,119.5C 191.167,119.5 190.833,119.5 190.5,119.5C 190.5,118.167 190.5,116.833 190.5,115.5 Z"/></g>
<g><path style="opacity:0.012" fill="#030302" d="M 189.5,119.5 C 189.833,119.5 190.167,119.5 190.5,119.5C 190.167,123.5 189.833,123.5 189.5,119.5 Z"/></g>
<g><path style="opacity:0.008" fill="#e0cec0" d="M 1.5,120.5 C 1.64945,121.552 1.48278,122.552 1,123.5C 0.259877,122.251 0.426544,121.251 1.5,120.5 Z"/></g>
<g><path style="opacity:0.012" fill="#474747" d="M 188.5,123.5 C 189.833,124.5 189.833,125.5 188.5,126.5C 188.5,125.5 188.5,124.5 188.5,123.5 Z"/></g>
<g><path style="opacity:0.008" fill="#e0cfc0" d="M 1.5,124.5 C 2.52502,124.897 2.69169,125.563 2,126.5C 1.53566,125.906 1.36899,125.239 1.5,124.5 Z"/></g>
<g><path style="opacity:1" fill="#1b1b1b" d="M 122.5,122.5 C 123.117,122.389 123.617,122.056 124,121.5C 126.232,126.397 125.899,131.063 123,135.5C 122.501,131.179 122.334,126.846 122.5,122.5 Z"/></g>
<g><path style="opacity:0.008" fill="#e0cfc0" d="M 3.5,129.5 C 2.47498,129.103 2.30831,128.437 3,127.5C 3.46434,128.094 3.63101,128.761 3.5,129.5 Z"/></g>
<g><path style="opacity:0.012" fill="#2b2b2b" d="M 187.5,126.5 C 187.833,126.5 188.167,126.5 188.5,126.5C 188.167,129.167 187.833,129.167 187.5,126.5 Z"/></g>
<g><path style="opacity:0.012" fill="#e0cec1" d="M 3.5,129.5 C 3.83333,129.5 4.16667,129.5 4.5,129.5C 4.16667,132.167 3.83333,132.167 3.5,129.5 Z"/></g>
<g><path style="opacity:0.008" fill="#121212" d="M 186.5,129.5 C 187.833,130.167 187.833,130.833 186.5,131.5C 186.5,130.833 186.5,130.167 186.5,129.5 Z"/></g>
<g><path style="opacity:1" fill="#131313" d="M 49.5,129.5 C 50.8298,135.463 51.4964,141.796 51.5,148.5C 51.3333,154.833 51.1667,161.167 51,167.5C 46.9611,159.255 42.7944,151.089 38.5,143C 42.4026,138.607 46.0693,134.107 49.5,129.5 Z"/></g>
<g><path style="opacity:0.012" fill="#121212" d="M 185.5,131.5 C 185.833,131.5 186.167,131.5 186.5,131.5C 186.167,134.167 185.833,134.167 185.5,131.5 Z"/></g>
<g><path style="opacity:0.008" fill="#e0cfc0" d="M 6.5,134.5 C 6.5,135.167 6.5,135.833 6.5,136.5C 5.16667,135.833 5.16667,135.167 6.5,134.5 Z"/></g>
<g><path style="opacity:0.004" fill="#121212" d="M 184.5,136.5 C 184.369,135.761 184.536,135.094 185,134.5C 185.692,135.437 185.525,136.103 184.5,136.5 Z"/></g>
<g><path style="opacity:0.979" fill="#141414" d="M 165.5,125.5 C 157.694,125.989 151.86,129.655 148,136.5C 143.451,148.112 140.285,160.112 138.5,172.5C 138.124,177.408 139.291,177.741 142,173.5C 148.85,159.78 156.684,146.78 165.5,134.5C 168.679,130.825 172.346,127.658 176.5,125C 178.259,124.202 179.926,124.369 181.5,125.5C 180.41,126.609 180.41,127.609 181.5,128.5C 183.071,127.691 184.738,127.357 186.5,127.5C 186.5,128.167 186.5,128.833 186.5,129.5C 185.662,129.842 185.328,130.508 185.5,131.5C 184.069,132.78 183.402,134.447 183.5,136.5C 182.662,136.842 182.328,137.508 182.5,138.5C 181.662,138.842 181.328,139.508 181.5,140.5C 180.662,140.842 180.328,141.508 180.5,142.5C 179.833,142.5 179.5,142.833 179.5,143.5C 178.662,143.842 178.328,144.508 178.5,145.5C 177.662,145.842 177.328,146.508 177.5,147.5C 176.833,147.5 176.5,147.833 176.5,148.5C 175.662,148.842 175.328,149.508 175.5,150.5C 174.833,150.5 174.5,150.833 174.5,151.5C 173.094,151.973 172.427,152.973 172.5,154.5C 171.833,154.5 171.5,154.833 171.5,155.5C 169.457,156.579 168.124,158.246 167.5,160.5C 166.833,160.5 166.5,160.833 166.5,161.5C 165.833,161.5 165.5,161.833 165.5,162.5C 164.833,162.5 164.5,162.833 164.5,163.5C 163.833,163.5 163.5,163.833 163.5,164.5C 162.833,164.5 162.5,164.833 162.5,165.5C 161.833,165.5 161.5,165.833 161.5,166.5C 160.833,166.5 160.5,166.833 160.5,167.5C 158.246,168.124 156.579,169.457 155.5,171.5C 154.833,171.5 154.5,171.833 154.5,172.5C 152.973,172.427 151.973,173.094 151.5,174.5C 150.833,174.5 150.5,174.833 150.5,175.5C 149.508,175.328 148.842,175.662 148.5,176.5C 147.833,176.5 147.5,176.833 147.5,177.5C 146.508,177.328 145.842,177.662 145.5,178.5C 144.508,178.328 143.842,178.662 143.5,179.5C 142.833,179.5 142.5,179.833 142.5,180.5C 141.508,180.328 140.842,180.662 140.5,181.5C 139.508,181.328 138.842,181.662 138.5,182.5C 137.833,182.5 137.167,182.5 136.5,182.5C 136.194,174.132 135.527,165.799 134.5,157.5C 133.823,150.998 132.823,144.664 131.5,138.5C 131.762,137.022 131.429,135.689 130.5,134.5C 129.354,137.279 128.021,139.946 126.5,142.5C 125.523,138.228 126.357,134.228 129,130.5C 129.333,124.5 129.667,118.5 130,112.5C 132.178,110.076 134.845,108.41 138,107.5C 139.257,107.85 139.591,108.517 139,109.5C 137.926,110.618 136.76,111.618 135.5,112.5C 136.167,112.833 136.833,113.167 137.5,113.5C 141.118,112.654 144.785,112.32 148.5,112.5C 148.238,113.978 148.571,115.311 149.5,116.5C 155.847,119.588 162.513,121.088 169.5,121C 168.5,120.167 167.5,119.333 166.5,118.5C 170.195,117.287 173.195,118.287 175.5,121.5C 172.51,123.428 169.176,124.761 165.5,125.5 Z"/></g>
<g><path style="opacity:1" fill="#2b2b2d" d="M 165.5,125.5 C 166.952,126.302 168.618,126.802 170.5,127C 168.585,129.4 166.919,131.9 165.5,134.5C 156.684,146.78 148.85,159.78 142,173.5C 139.291,177.741 138.124,177.408 138.5,172.5C 140.285,160.112 143.451,148.112 148,136.5C 151.86,129.655 157.694,125.989 165.5,125.5 Z"/></g>
<g><path style="opacity:1" fill="#577d83" d="M 134.5,121.5 C 134.5,122.5 134.5,123.5 134.5,124.5C 136.5,124.5 138.5,124.5 140.5,124.5C 140.5,123.5 140.5,122.5 140.5,121.5C 143.021,127.327 141.021,129.66 134.5,128.5C 133.583,125.995 133.583,123.662 134.5,121.5 Z"/></g>
<g><path style="opacity:1" fill="#3d6622" d="M 148.5,119.5 C 150.121,119.787 151.121,120.787 151.5,122.5C 150.652,124.409 150.318,126.409 150.5,128.5C 146.776,129.227 144.109,127.894 142.5,124.5C 144.641,122.796 146.641,121.13 148.5,119.5 Z"/></g>
<g><path style="opacity:1" fill="#b5dee5" d="M 134.5,121.5 C 135.167,121.5 135.833,121.5 136.5,121.5C 137.167,121.5 137.833,121.5 138.5,121.5C 139.167,121.5 139.833,121.5 140.5,121.5C 140.5,122.5 140.5,123.5 140.5,124.5C 138.5,124.5 136.5,124.5 134.5,124.5C 134.5,123.5 134.5,122.5 134.5,121.5 Z"/></g>
<g><path style="opacity:1" fill="#966e47" d="M 138.5,121.5 C 137.833,121.5 137.167,121.5 136.5,121.5C 137.167,118.833 137.833,118.833 138.5,121.5 Z"/></g>
<g><path style="opacity:0.008" fill="#e0cec0" d="M 6.5,136.5 C 6.83333,136.5 7.16667,136.5 7.5,136.5C 7.5,137.167 7.5,137.833 7.5,138.5C 6.66175,138.158 6.32842,137.492 6.5,136.5 Z"/></g>
<g><path style="opacity:1" fill="#dcbdaa" d="M 120.5,118.5 C 121.434,119.568 121.768,120.901 121.5,122.5C 121.131,128.445 119.631,134.112 117,139.5C 112.533,144.968 107.7,150.135 102.5,155C 101.054,156.298 99.7211,156.465 98.5,155.5C 112.506,147.155 119.839,134.822 120.5,118.5 Z"/></g>
<g><path style="opacity:0.004" fill="#3f3f41" d="M 183.5,136.5 C 183.833,136.5 184.167,136.5 184.5,136.5C 184.672,137.492 184.338,138.158 183.5,138.5C 183.5,137.833 183.5,137.167 183.5,136.5 Z"/></g>
<g><path style="opacity:0.008" fill="#e1cfc0" d="M 7.5,138.5 C 7.83333,138.5 8.16667,138.5 8.5,138.5C 8.5,139.167 8.5,139.833 8.5,140.5C 7.66175,140.158 7.32842,139.492 7.5,138.5 Z"/></g>
<g><path style="opacity:0.004" fill="#2a2a2d" d="M 182.5,138.5 C 182.833,138.5 183.167,138.5 183.5,138.5C 183.672,139.492 183.338,140.158 182.5,140.5C 182.5,139.833 182.5,139.167 182.5,138.5 Z"/></g>
<g><path style="opacity:0.016" fill="#2b2b2c" d="M 181.5,140.5 C 181.833,140.5 182.167,140.5 182.5,140.5C 182.315,141.17 181.981,141.17 181.5,140.5 Z"/></g>
<g><path style="opacity:0.008" fill="#8b837e" d="M 8.5,140.5 C 8.83333,140.5 9.16667,140.5 9.5,140.5C 9.5,141.167 9.5,141.833 9.5,142.5C 8.66175,142.158 8.32842,141.492 8.5,140.5 Z"/></g>
<g><path style="opacity:0.012" fill="#2b2b2c" d="M 180.5,142.5 C 181.833,143.167 181.833,143.167 180.5,142.5 Z"/></g>
<g><path style="opacity:0.004" fill="#171616" d="M 9.5,142.5 C 9.83333,142.5 10.1667,142.5 10.5,142.5C 10.1667,145.167 9.83333,145.167 9.5,142.5 Z"/></g>
<g><path style="opacity:0.999" fill="#131313" d="M 127.5,165.5 C 127.809,170.267 127.309,174.934 126,179.5C 121.595,183.084 117.428,186.75 113.5,190.5C 111.901,190.232 110.568,190.566 109.5,191.5C 99.8333,191.5 90.1667,191.5 80.5,191.5C 79.0813,190.549 77.4147,190.216 75.5,190.5C 73.9724,189.691 72.3057,189.024 70.5,188.5C 69.2086,178.543 68.2086,168.543 67.5,158.5C 66.5983,150.626 68.4316,149.292 73,154.5C 76.4252,162.825 78.4252,171.491 79,180.5C 79.6891,181.357 80.5224,182.023 81.5,182.5C 82.606,180.716 82.606,178.882 81.5,177C 81.6667,176.5 81.8333,176 82,175.5C 85.1241,180.04 86.9574,185.04 87.5,190.5C 90.5719,190.817 93.5719,190.484 96.5,189.5C 94.4497,184.595 94.1164,179.595 95.5,174.5C 95.4207,171.729 95.9207,169.063 97,166.5C 100.835,165.008 101.335,162.842 98.5,160C 99.6716,159.647 100.838,159.813 102,160.5C 110.258,158.059 116.091,153.059 119.5,145.5C 117.554,145.807 115.887,145.807 114.5,145.5C 115.729,143.082 117.729,142.082 120.5,142.5C 123.224,142.046 125.057,143.046 126,145.5C 127.377,152.076 127.877,158.743 127.5,165.5 Z"/></g>
<g><path style="opacity:0.008" fill="#2b2b2d" d="M 179.5,143.5 C 179.833,143.5 180.167,143.5 180.5,143.5C 180.672,144.492 180.338,145.158 179.5,145.5C 179.5,144.833 179.5,144.167 179.5,143.5 Z"/></g>
<g><path style="opacity:0.008" fill="#d6cdc8" d="M 12.5,145.5 C 12.5,146.167 12.5,146.833 12.5,147.5C 11.1667,146.833 11.1667,146.167 12.5,145.5 Z"/></g>
<g><path style="opacity:0.004" fill="#2b2a2d" d="M 178.5,145.5 C 178.833,145.5 179.167,145.5 179.5,145.5C 179.672,146.492 179.338,147.158 178.5,147.5C 178.5,146.833 178.5,146.167 178.5,145.5 Z"/></g>
<g><path style="opacity:0.016" fill="#6f6c6a" d="M 12.5,147.5 C 12.8333,147.5 13.1667,147.5 13.5,147.5C 13.3147,148.17 12.9813,148.17 12.5,147.5 Z"/></g>
<g><path style="opacity:0.012" fill="#2a2b2c" d="M 177.5,147.5 C 177.833,147.5 178.167,147.5 178.5,147.5C 178.315,148.17 177.981,148.17 177.5,147.5 Z"/></g>
<g><path style="opacity:0.008" fill="#636362" d="M 13.5,149.5 C 14.8333,150.167 14.8333,150.167 13.5,149.5 Z"/></g>
<g><path style="opacity:0.004" fill="#28282a" d="M 176.5,148.5 C 176.833,148.5 177.167,148.5 177.5,148.5C 177.672,149.492 177.338,150.158 176.5,150.5C 176.5,149.833 176.5,149.167 176.5,148.5 Z"/></g>
<g><path style="opacity:0.012" fill="#191a1a" d="M 175.5,150.5 C 175.833,150.5 176.167,150.5 176.5,150.5C 176.315,151.17 175.981,151.17 175.5,150.5 Z"/></g>
<g><path style="opacity:0.016" fill="#171818" d="M 174.5,151.5 C 174.833,151.5 175.167,151.5 175.5,151.5C 175.315,152.17 174.981,152.17 174.5,151.5 Z"/></g>
<g><path style="opacity:0.989" fill="#131313" d="M 55.5,183.5 C 52.6223,181.895 49.6223,180.561 46.5,179.5C 40.2811,175.55 34.6144,170.883 29.5,165.5C 30.3359,159.581 31.5026,153.581 33,147.5C 39.9508,155.129 45.2841,163.796 49,173.5C 52.6881,175.989 54.8548,179.322 55.5,183.5 Z"/></g>
<g><path style="opacity:0.008" fill="#121312" d="M 173.5,153.5 C 174.833,154.167 174.833,154.167 173.5,153.5 Z"/></g>
<g><path style="opacity:0.016" fill="#121312" d="M 172.5,154.5 C 172.833,154.5 173.167,154.5 173.5,154.5C 173.315,155.17 172.981,155.17 172.5,154.5 Z"/></g>
<g><path style="opacity:0.016" fill="#121312" d="M 171.5,155.5 C 171.833,155.5 172.167,155.5 172.5,155.5C 172.315,156.17 171.981,156.17 171.5,155.5 Z"/></g>
<g><path style="opacity:0.016" fill="#121312" d="M 167.5,160.5 C 168.833,161.167 168.833,161.167 167.5,160.5 Z"/></g>
<g><path style="opacity:0.016" fill="#121312" d="M 166.5,161.5 C 166.833,161.5 167.167,161.5 167.5,161.5C 167.315,162.17 166.981,162.17 166.5,161.5 Z"/></g>
<g><path style="opacity:0.016" fill="#121312" d="M 165.5,162.5 C 165.833,162.5 166.167,162.5 166.5,162.5C 166.315,163.17 165.981,163.17 165.5,162.5 Z"/></g>
<g><path style="opacity:0.016" fill="#111211" d="M 164.5,163.5 C 164.833,163.5 165.167,163.5 165.5,163.5C 165.315,164.17 164.981,164.17 164.5,163.5 Z"/></g>
<g><path style="opacity:0.016" fill="#111211" d="M 163.5,164.5 C 163.833,164.5 164.167,164.5 164.5,164.5C 164.315,165.17 163.981,165.17 163.5,164.5 Z"/></g>
<g><path style="opacity:0.016" fill="#111211" d="M 162.5,165.5 C 162.833,165.5 163.167,165.5 163.5,165.5C 163.315,166.17 162.981,166.17 162.5,165.5 Z"/></g>
<g><path style="opacity:0.016" fill="#121312" d="M 161.5,166.5 C 161.833,166.5 162.167,166.5 162.5,166.5C 162.315,167.17 161.981,167.17 161.5,166.5 Z"/></g>
<g><path style="opacity:0.016" fill="#121312" d="M 160.5,167.5 C 160.833,167.5 161.167,167.5 161.5,167.5C 161.315,168.17 160.981,168.17 160.5,167.5 Z"/></g>
<g><path style="opacity:0.94" fill="#5a5a5a" d="M 134.5,157.5 C 135.527,165.799 136.194,174.132 136.5,182.5C 136.5,182.833 136.5,183.167 136.5,183.5C 134.447,183.402 132.78,184.069 131.5,185.5C 131.167,185.5 130.833,185.5 130.5,185.5C 131.578,175.999 132.911,166.665 134.5,157.5 Z"/></g>
<g><path style="opacity:0.016" fill="#121312" d="M 155.5,171.5 C 156.833,172.167 156.833,172.167 155.5,171.5 Z"/></g>
<g><path style="opacity:0.016" fill="#121312" d="M 154.5,172.5 C 154.833,172.5 155.167,172.5 155.5,172.5C 155.315,173.17 154.981,173.17 154.5,172.5 Z"/></g>
<g><path style="opacity:0.008" fill="#121312" d="M 154.5,173.5 C 153.833,174.167 153.833,174.167 154.5,173.5 Z"/></g>
<g><path style="opacity:0.016" fill="#111211" d="M 151.5,174.5 C 152.833,175.167 152.833,175.167 151.5,174.5 Z"/></g>
<g><path style="opacity:0.012" fill="#121312" d="M 150.5,175.5 C 150.833,175.5 151.167,175.5 151.5,175.5C 151.315,176.17 150.981,176.17 150.5,175.5 Z"/></g>
<g><path style="opacity:0.004" fill="#121212" d="M 148.5,177.5 C 148.5,177.167 148.5,176.833 148.5,176.5C 149.167,176.5 149.833,176.5 150.5,176.5C 150.158,177.338 149.492,177.672 148.5,177.5 Z"/></g>
<g><path style="opacity:0.012" fill="#121312" d="M 147.5,177.5 C 147.833,177.5 148.167,177.5 148.5,177.5C 148.315,178.17 147.981,178.17 147.5,177.5 Z"/></g>
<g><path style="opacity:0.997" fill="#2c2c2e" d="M 131.5,138.5 C 132.823,144.664 133.823,150.998 134.5,157.5C 132.911,166.665 131.578,175.999 130.5,185.5C 129.833,185.5 129.5,185.833 129.5,186.5C 128.209,186.263 127.209,186.596 126.5,187.5C 125.209,187.263 124.209,187.596 123.5,188.5C 121.901,188.232 120.568,188.566 119.5,189.5C 117.901,189.232 116.568,189.566 115.5,190.5C 114.833,190.5 114.167,190.5 113.5,190.5C 117.428,186.75 121.595,183.084 126,179.5C 127.309,174.934 127.809,170.267 127.5,165.5C 128.29,166.609 128.79,167.942 129,169.5C 129.257,159.104 130.091,148.771 131.5,138.5 Z"/></g>
<g><path style="opacity:0.004" fill="#121212" d="M 145.5,179.5 C 145.5,179.167 145.5,178.833 145.5,178.5C 146.167,178.5 146.833,178.5 147.5,178.5C 147.158,179.338 146.492,179.672 145.5,179.5 Z"/></g>
<g><path style="opacity:0.012" fill="#121312" d="M 46.5,179.5 C 45.8333,180.167 45.8333,180.167 46.5,179.5 Z"/></g>
<g><path style="opacity:0.006" fill="#121312" d="M 143.5,180.5 C 143.5,180.167 143.5,179.833 143.5,179.5C 144.167,179.5 144.833,179.5 145.5,179.5C 145.158,180.338 144.492,180.672 143.5,180.5 Z"/></g>
<g><path style="opacity:0.012" fill="#121312" d="M 142.5,180.5 C 142.833,180.5 143.167,180.5 143.5,180.5C 143.315,181.17 142.981,181.17 142.5,180.5 Z"/></g>
<g><path style="opacity:0.016" fill="#111211" d="M 140.5,181.5 C 141.833,182.167 141.833,182.167 140.5,181.5 Z"/></g>
<g><path style="opacity:0.01" fill="#111211" d="M 138.5,183.5 C 138.5,183.167 138.5,182.833 138.5,182.5C 139.167,182.5 139.833,182.5 140.5,182.5C 140.158,183.338 139.492,183.672 138.5,183.5 Z"/></g>
<g><path style="opacity:0.004" fill="#111111" d="M 136.5,184.5 C 136.5,184.167 136.5,183.833 136.5,183.5C 137.167,183.5 137.833,183.5 138.5,183.5C 138.158,184.338 137.492,184.672 136.5,184.5 Z"/></g>
<g><path style="opacity:0.016" fill="#202021" d="M 56.5,184.5 C 56.1034,185.525 55.4368,185.692 54.5,185C 55.0944,184.536 55.7611,184.369 56.5,184.5 Z"/></g>
<g><path style="opacity:0.008" fill="#606060" d="M 136.5,184.5 C 136.103,185.525 135.437,185.692 134.5,185C 135.094,184.536 135.761,184.369 136.5,184.5 Z"/></g>
<g><path style="opacity:0.012" fill="#2b2b2d" d="M 57.5,185.5 C 58.8333,186.167 58.8333,186.167 57.5,185.5 Z"/></g>
<g><path style="opacity:0.01" fill="#616161" d="M 131.5,186.5 C 131.5,186.167 131.5,185.833 131.5,185.5C 134.167,185.833 134.167,186.167 131.5,186.5 Z"/></g>
<g><path style="opacity:0.008" fill="#535354" d="M 129.5,186.5 C 130.167,186.5 130.833,186.5 131.5,186.5C 130.833,187.833 130.167,187.833 129.5,186.5 Z"/></g>
<g><path style="opacity:0.012" fill="#2b2b2d" d="M 126.5,188.5 C 126.5,188.167 126.5,187.833 126.5,187.5C 129.167,187.833 129.167,188.167 126.5,188.5 Z"/></g>
<g><path style="opacity:0.012" fill="#2b2b2c" d="M 67.5,188.5 C 67.5,188.833 67.5,189.167 67.5,189.5C 63.5,189.167 63.5,188.833 67.5,188.5 Z"/></g>
<g><path style="opacity:0.012" fill="#2b2b2d" d="M 123.5,188.5 C 124.5,188.5 125.5,188.5 126.5,188.5C 125.5,189.833 124.5,189.833 123.5,188.5 Z"/></g>
<g><path style="opacity:0.012" fill="#2b2b2d" d="M 67.5,189.5 C 68.552,189.351 69.552,189.517 70.5,190C 69.2506,190.74 68.2506,190.573 67.5,189.5 Z"/></g>
<g><path style="opacity:0.01" fill="#2b2b2d" d="M 119.5,190.5 C 119.5,190.167 119.5,189.833 119.5,189.5C 123.5,189.833 123.5,190.167 119.5,190.5 Z"/></g>
<g><path style="opacity:0.008" fill="#121212" d="M 71.5,191.5 C 72.5676,190.566 73.901,190.232 75.5,190.5C 75.5,190.833 75.5,191.167 75.5,191.5C 74.1667,191.5 72.8333,191.5 71.5,191.5 Z"/></g>
<g><path style="opacity:0.009" fill="#2b2b2c" d="M 115.5,191.5 C 115.5,191.167 115.5,190.833 115.5,190.5C 116.833,190.5 118.167,190.5 119.5,190.5C 119.5,190.833 119.5,191.167 119.5,191.5C 118.167,191.5 116.833,191.5 115.5,191.5 Z"/></g>
</svg>
